<mxfile host="Electron" agent="Mozilla/5.0 (Macintosh; Intel Mac OS X 10_15_7) AppleWebKit/537.36 (KHTML, like Gecko) draw.io/24.7.5 Chrome/126.0.6478.183 Electron/31.3.0 Safari/537.36" version="24.7.5">
  <diagram name="Page-1" id="Y6j655eJSKoAY-0bodJe">
    <mxGraphModel dx="3193" dy="860" grid="1" gridSize="10" guides="1" tooltips="1" connect="1" arrows="1" fold="1" page="1" pageScale="1" pageWidth="1600" pageHeight="1200" math="0" shadow="0">
      <root>
        <mxCell id="0" />
        <mxCell id="1" parent="0" />
        <mxCell id="Ync1CkBfdIFv9e4oZCEu-179" value="" style="rounded=0;whiteSpace=wrap;html=1;" vertex="1" parent="1">
          <mxGeometry x="-1590" y="426.2" width="1420" height="500" as="geometry" />
        </mxCell>
        <mxCell id="Ync1CkBfdIFv9e4oZCEu-123" value="&lt;font style=&quot;font-size: 25px;&quot;&gt;Angular Unit Test in Action&lt;/font&gt;" style="text;strokeColor=none;fillColor=none;html=1;fontSize=24;fontStyle=1;verticalAlign=middle;align=center;" vertex="1" parent="1">
          <mxGeometry x="-1040" y="150" width="344" height="60" as="geometry" />
        </mxCell>
        <mxCell id="Ync1CkBfdIFv9e4oZCEu-129" value="" style="group" vertex="1" connectable="0" parent="1">
          <mxGeometry x="-542" y="210" width="266" height="190" as="geometry" />
        </mxCell>
        <mxCell id="Ync1CkBfdIFv9e4oZCEu-128" value="" style="rounded=0;whiteSpace=wrap;html=1;fillColor=#00aa00;" vertex="1" parent="Ync1CkBfdIFv9e4oZCEu-129">
          <mxGeometry x="11.822222222222221" width="254.17777777777775" height="190" as="geometry" />
        </mxCell>
        <mxCell id="Ync1CkBfdIFv9e4oZCEu-122" value="&lt;font style=&quot;font-size: 22px;&quot;&gt;Goal: Test Coverage&lt;/font&gt;" style="text;html=1;align=center;verticalAlign=middle;whiteSpace=wrap;rounded=0;" vertex="1" parent="Ync1CkBfdIFv9e4oZCEu-129">
          <mxGeometry width="256.1481481481481" height="40" as="geometry" />
        </mxCell>
        <mxCell id="Ync1CkBfdIFv9e4oZCEu-127" value="" style="shape=image;verticalLabelPosition=bottom;labelBackgroundColor=default;verticalAlign=top;aspect=fixed;imageAspect=0;image=https://europe1.discourse-cdn.com/sonarsource/uploads/sonarcommunity/original/2X/0/06522bee021bebaa5c031f89e92ac733f2bc2c26.png;" vertex="1" parent="Ync1CkBfdIFv9e4oZCEu-129">
          <mxGeometry x="29.55555555555555" y="40" width="211.90292307692306" height="133.2013846153846" as="geometry" />
        </mxCell>
        <mxCell id="Ync1CkBfdIFv9e4oZCEu-131" value="" style="rounded=0;whiteSpace=wrap;html=1;fillColor=#71a9da;" vertex="1" parent="1">
          <mxGeometry x="-1091" y="500" width="247" height="291" as="geometry" />
        </mxCell>
        <mxCell id="Ync1CkBfdIFv9e4oZCEu-132" value="" style="group" vertex="1" connectable="0" parent="1">
          <mxGeometry x="-1060" y="688" width="175" height="72.5" as="geometry" />
        </mxCell>
        <mxCell id="Ync1CkBfdIFv9e4oZCEu-133" value="" style="rounded=1;whiteSpace=wrap;html=1;fillColor=#feda05;" vertex="1" parent="Ync1CkBfdIFv9e4oZCEu-132">
          <mxGeometry width="175" height="72.5" as="geometry" />
        </mxCell>
        <mxCell id="Ync1CkBfdIFv9e4oZCEu-134" value="" style="shape=image;verticalLabelPosition=bottom;labelBackgroundColor=default;verticalAlign=top;aspect=fixed;imageAspect=0;image=https://www.debugbar.com/wp-content/uploads/2021/02/headless-chrome-1024x655.png;" vertex="1" parent="Ync1CkBfdIFv9e4oZCEu-132">
          <mxGeometry x="13.079999999999927" y="10.661764705882353" width="79.99735294117647" height="51.17647058823529" as="geometry" />
        </mxCell>
        <mxCell id="Ync1CkBfdIFv9e4oZCEu-135" value="Browser" style="text;html=1;align=center;verticalAlign=middle;whiteSpace=wrap;rounded=0;" vertex="1" parent="Ync1CkBfdIFv9e4oZCEu-132">
          <mxGeometry x="106.86999999999989" y="23.455882352941174" width="60" height="25.588235294117645" as="geometry" />
        </mxCell>
        <mxCell id="Ync1CkBfdIFv9e4oZCEu-136" value="" style="group" vertex="1" connectable="0" parent="1">
          <mxGeometry x="-1065" y="608" width="195" height="75" as="geometry" />
        </mxCell>
        <mxCell id="Ync1CkBfdIFv9e4oZCEu-137" value="" style="rounded=1;whiteSpace=wrap;html=1;fillStyle=auto;fillColor=#52c79a;strokeColor=#d79b00;" vertex="1" parent="Ync1CkBfdIFv9e4oZCEu-136">
          <mxGeometry width="195" height="70" as="geometry" />
        </mxCell>
        <mxCell id="Ync1CkBfdIFv9e4oZCEu-138" value="" style="group" vertex="1" connectable="0" parent="Ync1CkBfdIFv9e4oZCEu-136">
          <mxGeometry x="13.079999999999927" y="15" width="181.92000000000007" height="60" as="geometry" />
        </mxCell>
        <mxCell id="Ync1CkBfdIFv9e4oZCEu-139" value="" style="shape=image;verticalLabelPosition=bottom;labelBackgroundColor=default;verticalAlign=top;aspect=fixed;imageAspect=0;image=https://i.ytimg.com/vi/bJc078szrZA/maxresdefault.jpg;" vertex="1" parent="Ync1CkBfdIFv9e4oZCEu-138">
          <mxGeometry x="-1.87" y="-10" width="97.77" height="55" as="geometry" />
        </mxCell>
        <mxCell id="Ync1CkBfdIFv9e4oZCEu-140" value="&lt;font style=&quot;font-size: 7px;&quot;&gt;karma.config.json&lt;/font&gt;" style="text;html=1;align=center;verticalAlign=middle;whiteSpace=wrap;rounded=0;fontColor=#000000;" vertex="1" parent="Ync1CkBfdIFv9e4oZCEu-138">
          <mxGeometry x="35.90000000000032" y="15" width="60" height="30" as="geometry" />
        </mxCell>
        <mxCell id="Ync1CkBfdIFv9e4oZCEu-141" value="Test Runner" style="text;html=1;align=center;verticalAlign=middle;whiteSpace=wrap;rounded=0;" vertex="1" parent="Ync1CkBfdIFv9e4oZCEu-136">
          <mxGeometry x="106.86999999999989" y="15" width="88.13" height="30" as="geometry" />
        </mxCell>
        <mxCell id="Ync1CkBfdIFv9e4oZCEu-142" value="" style="group" vertex="1" connectable="0" parent="1">
          <mxGeometry x="-1070" y="537" width="235" height="60" as="geometry" />
        </mxCell>
        <mxCell id="Ync1CkBfdIFv9e4oZCEu-143" value="" style="rounded=1;whiteSpace=wrap;html=1;fillColor=#8a4182;" vertex="1" parent="Ync1CkBfdIFv9e4oZCEu-142">
          <mxGeometry width="215" height="60" as="geometry" />
        </mxCell>
        <mxCell id="Ync1CkBfdIFv9e4oZCEu-144" value="" style="shape=image;verticalLabelPosition=bottom;labelBackgroundColor=default;verticalAlign=top;aspect=fixed;imageAspect=0;image=data:image/png,iVBORw0KGgoAAAANSUhEUgAAAawAAAB2CAMAAACjxFdjAAAAkFBMVEX///+KQYKDMHqIPYCHOn+IPoCGN33czNn48vf8+fyFNXyAKXeCLnmsfqf6+PqIO4DOs8vYwdaYXJHi0eHq3umQS4jVvtPy6fG9lbiTUIumcaCvhqrz7PKPR4f28PXgzd7p2+jBnb3FpcGxiayxg6yWV4+fZJmodaLJrcaibJzRt869l7nCob6dZZZ7GnJ2AGu2zNbnAAATr0lEQVR4nO1dCZeiuhIWQjIQwbiAqO2CCyou8/7/v3uA2RPR7p5pvWf4znnvTmMIIV9SVamqhE6nRYsWLVq0aNGiRYsWLVq0aNGiRYsWLZ5GsEzjeO6/uhktGuHPV8fJ4TrMp0mSD4dFtD7Fy+DVrWphIutvc9fFiAAIICz/B4iHcOjMLoOWr7dCvMk95EHHBCTIA9GqFYrvgkG0wDaiODx8XS9f3coWnU7vlIfWOaUAIHebvbqp/zz6QwweMXUDWnykr27tP4344D5JVQmIQP/VDf53EUyA9zRVNV14P3p1o/9RpDPXpKOy1ykQMVUZAadXN/ufxNjTphUsrYhFsd2cxoPVanzqr6McYaKJSRgeWjP+x7HWTECCkutkpHiZgmXaP+QAqXzhffyyRv+j2GFVGbmHk52DYLVOXCIX9pLsZ9v6j2MZKVyhZD1vKj6YIZkuAFoz4+cQzGSuvPD8aAEVDHJXkppgsfqRdrbodHoHiSuIo6fWuscESTd1s7/cxhYUE4kr4ox7z92VHiQHIpy2VsaPQObKPejTanTsU5x03+0RCLuQTBu1XIs/g0EoqauNEauadOma2F0YkyfOhZ3hHdow119HOhXCLNyYv0+YarJJunQqFtLu8Qda+49jyLsbumPL741kdZZ7cTtoTcK/jKOw6Tw+NXpSt9vJ4v+c55wtMH3wrJ4Nf+xN/gbeq5WxcM6GPN4RF78FW1ayLogTmwq9hS+Nz0pR18TiPfrBjuB/t0b+Pry6JTUiPi880dNrF+TcKLSRNfKAy+lMHWYTQqfRfk8T02sP83c2S4Iu7Zvo1S2pMOCzAs3EVX9IEB9LFrL8IcBS88dcknpSJSZasr6FYMG6D+TyIipeAMwMQwtZESJ72Rt/4XEwNGh42rwl6zsY814OVUvuiLlIM8k6uTDM5NLBnglCMmvo+3ZmfQf+lXUy0ltTTp7hbfIYZGULiLT12IhL026D+d6S9R2MmZ8JGEuodAi8bf0vg6xSoRlt37FCpEFrtWLwO8jZxLLY3KMunSU6WWsMF4ZbPubKD94Pbc1xZQYLR6RbGcXvbbq/D1kZM9uhrccuHkwqdjSyBhgii6hbMw7Q5MFT+6w+r8kYeQ8wssju1S0pV7asgy0uwU5QeF7R0cmaTwHaWkovu6wUePDU/xJZnZji5dmsPpOCcErN9nQsN6q0B/BZJ+uAvEKahsGI9Tgv5j7wEP6nyHobZMxu9z7olX53ejjNucYfuJVXQyErnSLEbZFedh46gFI3YkrLOvEkPCIr6C3n86X/jN3hL5fPFawSs5bzpW0vhf/005pq95+poiyVjkbpl57GpWDIbILIg8Qluz4LI04qL7w6s5YRcwquLvsQAX5zcKXmOyma8wibyVodd/sFDsl0dqEzNB7JELM67n8Mk8Uin00GvFRW/ZDK5W+vMj8epiRESXRU5Vkwnuwd113k4p1FS+Rq2ABVG3O7lvYnszwZzranxvDraBPluBu6XZRHm0+H1WdUCgLmjUidenZ4CBQn8VI23+Ay2ybeLX2QGxQbbuY1t6SBrPmkrNUDVSsAQSiv6dpiIoHV/auoS1a7/BCarjpbt/wR1/HPtSuKh1W+8HJNUJ2bCst7duLNlusFql8Clj+AWaY25rf0VO5c+5Ab41YjZ1SUDSgbAsr/kNk9FeCfEoJZYmbVjNnqU1bwnKkstKZXhD8DuEnUp0KDB/1BQntqdN4jnugJrpTqmJkYbrMuuk/WcapuYAGkks8TOS8H3pqwLDtNKkjI6VyV8qKaLOkGtyQrHsqbzdA0o49b5comNA+oZlZX/o2RtZXqdnDZ3xsipzF7eGedXYOrqy0xiVt8Jn1vxRdZrNMKqasgweH+VL2XvyewhluFUPzVhIRKSq7H5CCLOHvNdu49smLjhapk31Qhi87aOEFqOQiSugcMsvCpM9ASvoF3C7Fe9P0y0C1kZWInS6amJOug7w5Ajjm5/KhLHAMknDw/ubj7AtOpYTgYCF7M4sqXtKjgVD2xyQnSSqGz9iJg+BWyToltAwu69kyy/OmdbUkWssZxohcGpOrPPnYM4J3E1mOykD8xd3IAI16eDu9szcGHp3OM2DuBnLFn1glxNdiyG0pOB545ROCCdTfSLnyGrEHXvtkSRUr/1GTtBBuAyPPGNrMK861AknZGwPY89yxa9JgsZ2NyVSW8Zsr7xtO726hQ/ixbB9rv3HDf2SpVHFG+Zc9P+Ya0cdx4B40WhpWsE7JUfKtM/bOs+hcvC908iq4OH0AmWTC3TUK061ivl78IRfIEWXaQXH5dKe2h2tyLS7NIetz1SbaYisHUFu9ZmcCy98jvWkpwPmMmRknjsthG1ggo6hJhbDsqoDL9qnW58JJVlrgfD7kX+UYWLgvye2iVHpIULUwmwjBTnuRFXI90pVokA0O6SgFK407pOyyLDN7aUquExeRy3iWusKNMl7gdbAq7v2hfD7GujqqWKB2/N8ZjuTBz1lTSc/OycX+dhaz5QtQL3MXhvDletgt9b3OtOePOkk8czIOhtENuZF0qHavciZzDdn2eCRkObzeAMN+dzzv5aIKQS4WwehyzmThZQK8bk9l2vY0SqQ4g+Xg2LCkT4muf9lNwvHL5iW2ePhNsloCMXvDjde5oPQRzZYV70rSy5yUz4aJiVKLGBEILWVJKsLcfUBfK/JQrswv052la/rZiQ5XL704aymT5aZouJXkFwXle9V5vVCjCFpJiUJ2XE8z7YrCIzitrmcehRtayuhoJxU2cc1rVHcyPkrgjvEuEtFkcJdvPvzDxDsEzbsceF2myhhlthqHMl+gQ9dnVYzwXRIozkZn+zaPFJGvEHwiwwvNRsR5oca7esJjAedcNS3RFnFrYkMAVekhOFIfSmJrz7Eei5DHZQyQfIvkuF3X7YneHWGky84Ykmh5fMSMVqT1sx5y2A+pJ0em6cPicdrWVG7NKyuVfvtN3MDBpxFfZVphkFaxSONUely3E4DDJEp0da14h2e+i7EaS1gGeLKzTnD4IXOXnPyALOvJYDbh64lYZm5lgaMyflKppqNNoAxMdlsJBtpl2axcBSTTfZ22slnOqGw3M6ctewmt05RpkcdeH0zUW9QNJ4tDiPJcKNKVScVYUC0lEcvR4InOUqnL/AVlEzWCO+UhmHcAMU33M1+9BS+MnjqfgZJnbDeqfjzOA3alekV8A1823dofS9mtknfkFi/jsc1XMyBpxIdSUXM/JIur053mSWO2/lMowKWGy84gsoGcHMW5Y8eXwNnuQNfmVNhHkth9VCDM8sxfoxceVuQoIrFdvYAs1dL5ToIZOFs/aAUOLu77HF0SMLF9al3/cXaYwsnTfFzeRiHYDrRVOnyfLEPds0hNaPGYjzWpEzOkju0+cdsDIIpm1pscVGGAKzT6QGHSyYjbWXavFf+Iyx1Bx5ZPwbjyynvjFyMJapcwjCvbaDXQSqLsvmskywqwZixJRK+V4Gxn35DWVRA8c3zW4a9CQp0F6LPY1W358UqTIaHwjsT/sp2YEjfXi56xB5uuHjnWEzZmNwcn6pfi5kTOdXTLjVkaW7qkbMer17PXCpu+byerqEyZlI4GyQ2Uu2Q3GFgwmt+IPdgjUYOJFJzbdHAgmYbVUHhTYLaQ5NkbhYlv1S4ExORx1ZZdrPhE7dLKEoLcHUHlQk7dTPVmgPlvletFEAddZd+xLIzRAxcJnyAp1r7mvkUVnq0NcK57SGjfwJaxU1s/WiYs9glFRGjpxZRF6DhMky8it3HG7yo8cesDD4XQtD2mew9mcXKGTxTTdPYqZ2SLICvaGJxGgcKaMHUaW5lXtZMkdsugs+AxZRCerx+x/Sta96ICKByGlGqyThEAYnfcAleMU5Je4bEfvJhkAWteNynIhYtNVlBAEIALXScYmBJMwwidihU4WX53dMWFZBFqQ1UmvlrMrvcVFmpr3ZhZb1huZgF8gC+lkBV8iizyxv5d1Akxuf/fyLiIEu/tjRt+Xew8rBXZkjg0aMA4G5zxEgKCQhdvEZpJG8+YeWZ5t22XHSlbZGmj6MaE7FLbGT5CFH5F1x7X/BbJ432Iq7icYL4oLNxzG0k78lezD9Zgh1cvOVweDkOpZtl56sAHy+2KwQnrOkRGuwOLMr/cg6+GBqHXlT4hBLrUwHdKDIZtTFZaO5EZWyHKwWF9Uzg4aa+yxEoahpUIni3F8z+AvDAPjhvlgh13tzC+X26FvQRbrEWA3MCi6D3L36pqHtGqrNRLM5JhZ+cby36oBSZu8ZMEA+3qJ43jHdAd7a0pCapjuElbnPZL9zpAwQfgWZFGhQWaDJoyfyUtjygLsLTrmIhlcdYRsJPlUVZ8MBU9q4OliLB+ghFRuwx1BdFHMVaO10TzZwEZWlRS32Uu5BtxKeQuy2KK4OSnlKfDeDU0340g6yIS6gU7SJVSY1Yk0RDa605Dht0Quj7rT9Sp3eFtlt+luMrESpjyv4y3IYuOQfP/QOOa7tGxomQ8l2YIytY0VTB9qxnScSJ9eiuKiowMeZaH9GLAZDheWdzryBfB9sjo+90BxKfEWZDFHrvdMzKoZPRYshIku1eSTIitvSBpn5aOnQtxAJ9NuObNbJI8Zt1Gk1nL3EWTr1ROTg8QUF1JAq4EsYSxBFtN5C7KE8fT941y4XaYbYkdZYe3q4wgrP1gmGYgkURUdDzzLW364BQmFI0FIQR454tXiSNOeqZScwcjKhvsbZKnJhSV4K7JYHMrcWcp97lD3sdxBKtKElGVZKuXqQGdekUXqxdRFypPTNotsbJvpRFyWDOkTVrwCwPWeSL9DM8WF/kuay5ysFQY1PHmD65BP12fJ0hXk7m+QxcP6hkm2LLxbnvOz+U0i2KD4yf293EXVBGZkdWbSlAtlC33OT+uCmbg6EuR603HZjfFa5HIKtecLDemRi7Alo1BJmBkHvl/OPJ4wIznUuVuSXHudqljAE2ZWfn1X/ZwSI1qSRFWxW2/3qhsi5sgd0RuW5X+kTJyqzK2oz+N2qai7rjxlnVYE9Be+fZcQRctnU+6SeHZDyYqLJHmayomMuF6DcbJiaU0O5DEoArPyinh5FVIMeMPiKuWoy/kLYkeEA1GyG2Tz+HS+LjR3bT4skUpkiYyvC7tWzetNVTBR7qpbml7Lf+XselL9cVthno0brmnHrwqwCXsrPdGKwqrEkDaifg6rY1EVr/U0lzjQK8aU2F685bmrzbE/GcGM3yMm4+q3IMS7BgpZnZWU5olF/C7jc1E9WuEk5xdDIqcsY3kpLhs00HPDboiRkd9cyoxqyw8ny8ETKgiFV7I6NEVJ8qzvunmW44RACOQf8I4+Xb4BlDeU49CvkjyVairt/aEXBWwzIQZ68duwFelvwF1sj6fxaXMIuWMT6THQBohzISUbbs1pB3T0C7I6Z9FV14zd0eMziMxUOZ6bufG06kRWk0GB7pTT86dlskrZeorj+NeB69h6+bk266Jk6fTTZBF5TVKjMo/N7ONKzVnSp+kLGz9QGTO/ShmMHkYekg7uJmbWUwP4FgsonZo6crSYuERWMKSy3f0QtoB0HJDmOh85egfRx2HVEE+Hd9iCTqGwpZBVtgIsHGmrFl69HVlNGxMI+dTG8pU4aEtySvgf9VYpLqkksjq3LTSlvSCKi10FnuHZWHm2MIF5DGVQWLbgVCpsNNF2kVCybNV2ayX+ZmR1/Kv11cr+LT55CEAkOlpWdX2HOCRnIk0mq9ZD3lV6jHSEnWwKMrYs+668hRm76m2R2f8Q9Y3NdDeyQAT04pCuGt6NrI5vezUHoOizH/dLhR5XbPHR3nV4zytkdSLsyjHZ+VAcDmlLxY2jrrb10N1nlnId9Vz/qs9wlU1rJwsPBo7SP6VdQp24b0dWFX0KNeUN8PQLn0cSzjcI5PEefIgwu0rWPJItvp7Y1wcS+yMGhceHFkRkdi8FtXfMkQgAA5ysK1v3oytCP6FbklX//fvUSQ9ALLpxsmMriXNXCxiFtx1ksRPqkSRqDRo3gNIa/G3EnSK1MRTUHu8alcsJaMFg5kiv5qHr5XF42AJxIjFAd7zDKlkd+TE9Kc5113sXjCb57WXCxWTU0Mr5are4dUfY3dPsqfiXjF5nefvHvK6W3Loo3EuHFag31Kg7tGdetz2BPiYwL2bWovSp1uIyssmUvVqy++rXaOcirQOG9tC6RpaENBcy58FR4X68Wo2eyB0NRqsSz67r09EnCr8cWdnYLP7OCSnSIfyQbGzh2tJUMxIaa7SH8P84zpJp6c5srKzG1g+UbIi0vms/b/Ez+NqHY+JZ++GYF6B3kDe4P/lJps1CdiW0n2T6MWgfO3Of+NjZVE6KhZZzVVr8LeifEZw++IxgoazJQfNhCi3+NFS2IMa7wR3rLrsk6rFH3pOR6RZ/DPqnbz0y3Z3mvmJt9OZVxrSWZt5++vYFOOnJ48BzyTU6H+lHpY+X7Wwa6j7J9qPSr0FamDtpgIfE59o983QqD7afa38NemfnbqDMCoBEuLjFTyPdufcC8Raq8LQ9QPqlWM2ssV0TEE03n42etfjTGOxDy/lxxqxCl5efTN+ixCBaWDbtSpPKw9d1awO+C+LL1LOdz1gf3ejB6KvBsxZ/B1l/m7vVOQsAVvmL5f8TD+Nwcdjcc220eCX8dLXZzq7DfJpM8+GwiNbjeNky9dYIlmkcz1vB16JFixYtWrRo0aJFixYtWrRo0aJFixZ/H/8HiTNu3eczICcAAAAASUVORK5CYII=;" vertex="1" parent="Ync1CkBfdIFv9e4oZCEu-142">
          <mxGeometry x="5" y="10.999999999999972" width="138" height="38.05" as="geometry" />
        </mxCell>
        <mxCell id="Ync1CkBfdIFv9e4oZCEu-145" value="Testing&amp;nbsp;&lt;div&gt;Framework&lt;/div&gt;" style="text;html=1;align=center;verticalAlign=middle;whiteSpace=wrap;rounded=0;" vertex="1" parent="Ync1CkBfdIFv9e4oZCEu-142">
          <mxGeometry x="115" y="10.999999999999972" width="120" height="30" as="geometry" />
        </mxCell>
        <mxCell id="Ync1CkBfdIFv9e4oZCEu-146" value="" style="group" vertex="1" connectable="0" parent="1">
          <mxGeometry x="-1370" y="618" width="120" height="45" as="geometry" />
        </mxCell>
        <mxCell id="Ync1CkBfdIFv9e4oZCEu-147" value="" style="shape=image;verticalLabelPosition=bottom;labelBackgroundColor=default;verticalAlign=top;aspect=fixed;imageAspect=0;image=https://encrypted-tbn0.gstatic.com/images?q=tbn:ANd9GcRbOFmjGchTMwQriXqezOovYKqXWK3YXUnFlQ&amp;s;" vertex="1" parent="Ync1CkBfdIFv9e4oZCEu-146">
          <mxGeometry width="45" height="45" as="geometry" />
        </mxCell>
        <mxCell id="Ync1CkBfdIFv9e4oZCEu-148" value="" style="endArrow=classic;html=1;rounded=0;" edge="1" parent="Ync1CkBfdIFv9e4oZCEu-146">
          <mxGeometry relative="1" as="geometry">
            <mxPoint x="45" y="22.180000000000007" as="sourcePoint" />
            <mxPoint x="120" y="22" as="targetPoint" />
          </mxGeometry>
        </mxCell>
        <mxCell id="Ync1CkBfdIFv9e4oZCEu-149" value="ng test" style="edgeLabel;resizable=0;html=1;;align=center;verticalAlign=bottom;" connectable="0" vertex="1" parent="Ync1CkBfdIFv9e4oZCEu-148">
          <mxGeometry relative="1" as="geometry" />
        </mxCell>
        <mxCell id="Ync1CkBfdIFv9e4oZCEu-150" value="" style="group" vertex="1" connectable="0" parent="1">
          <mxGeometry x="-1240" y="538" width="130" height="205" as="geometry" />
        </mxCell>
        <mxCell id="Ync1CkBfdIFv9e4oZCEu-151" value="" style="shape=ext;double=1;rounded=1;whiteSpace=wrap;html=1;fillColor=#9919ed;" vertex="1" parent="Ync1CkBfdIFv9e4oZCEu-150">
          <mxGeometry width="130" height="205" as="geometry" />
        </mxCell>
        <mxCell id="Ync1CkBfdIFv9e4oZCEu-152" value="Services" style="rounded=1;whiteSpace=wrap;html=1;strokeWidth=2;fillWeight=4;hachureGap=8;hachureAngle=45;fillColor=#1ba1e2;sketch=1;" vertex="1" parent="Ync1CkBfdIFv9e4oZCEu-150">
          <mxGeometry x="25" y="29" width="80" height="31" as="geometry" />
        </mxCell>
        <mxCell id="Ync1CkBfdIFv9e4oZCEu-153" value="Components" style="rounded=1;whiteSpace=wrap;html=1;strokeWidth=2;fillWeight=4;hachureGap=8;hachureAngle=45;fillColor=#1ba1e2;sketch=1;" vertex="1" parent="Ync1CkBfdIFv9e4oZCEu-150">
          <mxGeometry x="25" y="67" width="80" height="31" as="geometry" />
        </mxCell>
        <mxCell id="Ync1CkBfdIFv9e4oZCEu-154" value="Directives" style="rounded=1;whiteSpace=wrap;html=1;strokeWidth=2;fillWeight=4;hachureGap=8;hachureAngle=45;fillColor=#1ba1e2;sketch=1;" vertex="1" parent="Ync1CkBfdIFv9e4oZCEu-150">
          <mxGeometry x="25" y="107.75" width="80" height="31" as="geometry" />
        </mxCell>
        <mxCell id="Ync1CkBfdIFv9e4oZCEu-155" value="Pipes" style="rounded=1;whiteSpace=wrap;html=1;strokeWidth=2;fillWeight=4;hachureGap=8;hachureAngle=45;fillColor=#1ba1e2;sketch=1;" vertex="1" parent="Ync1CkBfdIFv9e4oZCEu-150">
          <mxGeometry x="25" y="147" width="80" height="31" as="geometry" />
        </mxCell>
        <mxCell id="Ync1CkBfdIFv9e4oZCEu-156" value="&lt;font style=&quot;font-size: 13px;&quot;&gt;Angular&amp;nbsp;&lt;/font&gt;" style="text;strokeColor=none;fillColor=none;html=1;fontSize=24;fontStyle=1;verticalAlign=middle;align=center;" vertex="1" parent="Ync1CkBfdIFv9e4oZCEu-150">
          <mxGeometry width="70" height="19" as="geometry" />
        </mxCell>
        <mxCell id="Ync1CkBfdIFv9e4oZCEu-157" value="" style="shape=image;verticalLabelPosition=bottom;labelBackgroundColor=default;verticalAlign=top;aspect=fixed;imageAspect=0;image=data:image/png,iVBORw0KGgoAAAANSUhEUgAAAS4AAACnCAMAAACYVkHVAAAAq1BMVEX///8bFxsAAABOm80UDxQYFBiQj5ClpKXV1dX5+flHmMzKysoQChBDQUMaFRrHxsc9lMpLSUsJAAnl5OXQz9CzsrPs7OyNjI2ko6SrqquFhIXy8vKXlpe4t7gFAAWpy+TN4O9jYWMwLTCMuty51Ol+fX4oJSg5NzlXVVecw+DF2+xvq9Tk7vbq8viGt9pAPkBraWsiHiLX5vJ1dHVcotByrNVRT1EtjsdcW1wiss6oAAALcElEQVR4nO2ba3+iPBOHYQQrlCqi4gmt2nqora32/P0/2ZPJiYAKdre/e/vYud5sSQgk/8xMJsG1LIIgCIIgCIIgCIIgCIIgCIIgCIIgCIIgCIIgCIIgCIIgCIIgCIIgCIIgCIL4mbxO/nUPfi7e3UOu5C4Mb/5JV/4fmHyEr9cbs8R7DP1KXkNCgNr44eOzWbYO/fD2X3XoZ7O5veeCva6NQu/VJ4f0NhvvUPnmuhJWKmEmwt+E4f1/06sfy91HGIaV+5vr9SZftX5Fwe6NiHUb+q8Hxf013PkVhu/7TLW36+ds5YQJ5od3RgHz0V+tF8sQQiaWFC0MH9eZ6glzSf81NbCHX67Xw2Syvr2+eaugaigZS7AyNnbNBAqv0/uZP/7nnfyBeM/Xb0wyrlhmRdzchyyCaZNiev32eK95vqtwxULfTLGumUP62iGfQ//xH3Tth/LM0gUUrGJY2DPz03Cirtah4ZyEdVvhghkR3rtnemmDY8vD88GGvxXMILIpxGNoBPx73//Ny+MB1mhhfiW1ojtDL8/33/5Nt34umEFUDANjAV/743MYrg+3+r1gBmGmEKiXEunOD8kd81yjQ/ob4/JDhf8KZRP7PFTQIXUAu2EJmDSqybmujom9WIxbf9r6DR1yoq98vQV6O9PNUBVcF/5YLrSoyoeO68w55RHhJkxVPCeqYNt/IRcPYB8TebEJta3dnKd5/a1c1i3qpQLVWoevTfhxjsnEX8vF9QrVksjCl1wT787yS8ffy8X1Ukui51fOdE0UfINcuAPSkYq541kGLcl3yGU9+npJZBvsc/7g+C1yWa9p+vXATO1vH/dz+R65Nkb4evT98z0f/B65eAYhl8TNF8zL++Od+LGGw2Fxu0x1rT+Yfm6TUUkbg2+SC8NXmqGeFL0a8yUwdp9JO1vebWJ5cDW4NEo7PU6N37G12Q2zeS3TrtWfPwGn2TWe2OhzeEkfb4hlhZc4AOMgiFjZyuxCK45bsXFteawkFpKmcsWd+ao57Tb2B1brvXyupt1R4ejxm4f4a3PK4ngBEDmubdtuwLrb0eUJu+LldTYYt6/Lm0KJLuvNDCK8wRnDVtuYlyzUA22XtZxpqQei4YDJsACnbiu5RuzxtiKAZioQ3j4z+9rAkh7/U8kVT9nrAifQFZoRdiQIsKZaMH50Rxmz3vyy3Mt7MvrKOqBmoh1lyl1YqlFMAyyIXqw+OGm7ndQrhkw7piXqw+kCbzi3WqKhlGsrGjhRFLhCMG0nrIFzZfb2EjW6MOXqQJT2cWb4stfEtzgBfyjsMkaaBb9viN5PSj+ezaLM4NSM93KDxlFIj3vhLYJpA8zqSA1rl29oK70SIdfWsh3jXVfANYWr+XzqwpgPW81ZqVxxB7Atgq8NHK1XHLBuAiyn0wUE+ILjUREzCHkYzYQrVGurxuwIf1yI4otUCj16dVwyFwIvmDtlRJHuOhjzm+W0iqpLQ65g2gdjat7xAp6kQK0Bjq0O7RPlYlMGs4uWN2z1AnxvoFzXcxz2mAHXqDVltwZPx0V41OZ15xce1rdAmc7yaoZzNOfFNS0i837QFzNTLiGhk6oZiEeyEbBo4bxPVzMIMg17/EHu09JN5UIJ61IAzrDJS4YnyVWPbEhUHZ95dTll4oFeNfAt0LeOsdHmVfIpW4QTO1jx7rW70g0WMiiNn5gDen2QdiT6Mh8rhRxYvNvaa7VJwFTmA/GnsiPux9KqXLkKOEyuGGxzWGKkrCz6PEkudpEuTVIvT99nLJWfAXvhcRketRMWe+OTGUUslX2NlM29i1JlbHXAq4GSK1iid7bHyljk8pMYUbUpn9815EKYyTab7K3byFhddKcCJXCpXNIbJBg2xZQuHeb0Rk0rJ1+OB/3x7KZwbZS+BNl1YymNS4fHqrISnEsllyPjXFuJu9p/vhTeaeJFR8sFWxEGh8CX2ByxLi11RsjkyPg27vi1vRSWDWmckTYLWxxFxrX+KMpUhWPkRqoC2lhlAJZnKtJV2qnZuhLqunb22cNa+zKR/sfNUsulEyS2otQPLFkDHC3+USZXlFMAs0CcelbnZPI1qzu23WxJBpZ7iYNCrzDvWslgHIDhQmpYkObqn/I+sLSpCc9EEkgrJe2qTGZto0o9N3UT9tiMz0i462BAK10Zc36MqxDOIosxucy0D5n+7ZHmEkXocOICvKt3K28zHq8VaWm50nGM8nIlLDSlGSyvQqfZnwa2TJixWsOCELfAE9LUDNgTDF78n1o7pZaU7DBvfLUTKsRJhxVAJNZaaUruLtsPPtJ2KldTVap8VQaSRj6vt2UU7ORlxdAF2e2mgK0APNKUp6nZdhhGWQjh0QSy2EdeJZmE6bF9ATVzaC40ccRyOTM7emnEqxK59vcDOblcLVfrwIg5zKl4rP+qdbVEPNNpY64TBXJZ6caxRC9zFxShRV3ty9U+WS5lh3JvckCuuk6A4u+WKxZytQ9YF1J03PPmn/bbVG9qCgZbbV3mSqIVuSyRy1O2Bc1+y+MD3rMuLddRZ2S7eL4s/4l1jYV1wUVtjyIZbsu2i+lLXozIzHqwFfLVjVCvw06rRC69Jsh1o1AuK6of3pvgEtC3vh67LkWobx1YNMvATPXkD2ejK20VSZqUpnOn9olGInFYrpmjniIHXigXsyK1czCpKauDdNMvKLGuntBpCEYPToUFry98CGpIvaJtOvx05yvPJfhUF8ml8lk17V6xXP3Dyzszb2HaeKiRyZY6Obly+xpc0/F5rN2hPUYh977/lf941tHplBpjOrFakJ5VLFdsymOlu80jcuGb9s2LGxffZeKWNiMnpoSGXOm+Qz+OH4zgkVzBAddB7k6I9cO0L3Lxw95vlespg1ZHfrwLJ8klw+p7UCiXNT/gNh6ashgsH7aZx6ILGIfPbjZRT5SCIy346ZwS6xuwVUfpUiNMD3XeIno2bEr5xi+qn2XOGIjKl0OJhCkXX0jN4y5LHkiILQw6q7NMq+ZgZ+SSPZKI7JQbAH9s4Uq4ByaqZV/Dunj6t6r2O8mTkVkZw1wMkhd1yueKKS8M9eowI9gl/cTW6eIxuUSaBsaga7tAnyfK4zC9dvagnloX7vQd2/icMdw5PPQifUhPf0/k4YS8no8OP5WoTEIeK7gqsXDHaVYmA2uhXPrU2gVzL3RULmEwY+gKU2h8YiNXJwjcmaUkwy3Ud0tXOS8LY847pFI3cAj6fAMdwjW32XHRxyDEK88kPD39elziZDNWFmVWyVkuzuqjzBbIUVGwdUwucQaK4j69L0G8NtIRXIQFCOZJdcXmDdos9ZAisNwGeixajWHeaYyqCz45+mDWc7jQsL1o1C5HF/NdcU6PGL8XP0IjJ5ej42o8y1VFOu8rlqsGxhePaDYQevE4clgu9jy56XLMXFkiDtfcCIV0WZDDzbcQk/3FJnAF/GhWWLJj5KZDMYBIbH+iI0cfJuZ/DzpMBwwrqgcwM6Jj1XAm1t1PnUB3oY4Ehly8wFXH5Opw2oEr7xJchM/6Ebms2jLthcu1M5KLuQoTdUAxBuDKA+dV5KICL3pD4sIuE9y7ZjRwxlBwmCrlKs1Thxfv6Q50lU36hvg5WmJ+1e/KMr07aai7xMIyfJGXiw56tYPwqe2o+/a6wUKWanPBN/iGmTSWsmqAj69CXUbzlb0b411teRAJu/x2Kq7u9ABmg7ZVQhh+nHIm0Wp0LnoXo0PLbtzoJ93e6Ms/3LjsJ8nXWnmX+KZGLMOVG5kdHCVJpyAriFl9tXPwdXGj0++MGrUz/p8rIrkalN9IIB5fLL7jt0i/A74kZA9uiAJEtC9b+AmJ2Pwty28kOANwCn/BRmTJZZxEMSQWQRAEQRAEQRAEQRAEQRAEQRAEQRAEQRAEQRAEQRAEQRAEQRAEQRAEQRAEcZj/Adozubj6/683AAAAAElFTkSuQmCC;" vertex="1" parent="1">
          <mxGeometry x="-480" y="648" width="102" height="56.4" as="geometry" />
        </mxCell>
        <mxCell id="Ync1CkBfdIFv9e4oZCEu-158" value="" style="shape=image;verticalLabelPosition=bottom;labelBackgroundColor=default;verticalAlign=top;aspect=fixed;imageAspect=0;image=https://encrypted-tbn0.gstatic.com/images?q=tbn:ANd9GcSbsuQQUD-CKSk5-Pw6zmAPPO7_4CtaarQ7_g&amp;s;" vertex="1" parent="1">
          <mxGeometry x="-310" y="638.35" width="106" height="75.71" as="geometry" />
        </mxCell>
        <mxCell id="Ync1CkBfdIFv9e4oZCEu-159" value="" style="group" vertex="1" connectable="0" parent="1">
          <mxGeometry x="-760" y="545.14" width="233" height="215.36" as="geometry" />
        </mxCell>
        <mxCell id="Ync1CkBfdIFv9e4oZCEu-160" value="&lt;span style=&quot;font-size: 24px;&quot;&gt;&lt;b&gt;/&lt;/b&gt;&lt;/span&gt;" style="text;html=1;align=center;verticalAlign=middle;whiteSpace=wrap;rounded=0;" vertex="1" parent="Ync1CkBfdIFv9e4oZCEu-159">
          <mxGeometry x="95.509009009009" y="92.28902953586501" width="41.981981981981974" height="21.29746835443039" as="geometry" />
        </mxCell>
        <mxCell id="Ync1CkBfdIFv9e4oZCEu-161" value="" style="group" vertex="1" connectable="0" parent="Ync1CkBfdIFv9e4oZCEu-159">
          <mxGeometry y="121.18969409282703" width="232.99999999999997" height="94.17030590717302" as="geometry" />
        </mxCell>
        <mxCell id="Ync1CkBfdIFv9e4oZCEu-162" value="" style="rounded=1;whiteSpace=wrap;html=1;fillColor=#5b3a81;" vertex="1" parent="Ync1CkBfdIFv9e4oZCEu-161">
          <mxGeometry y="2.5911919831223478" width="232.99999999999997" height="91.57911392405067" as="geometry" />
        </mxCell>
        <mxCell id="Ync1CkBfdIFv9e4oZCEu-163" value="" style="group" vertex="1" connectable="0" parent="Ync1CkBfdIFv9e4oZCEu-161">
          <mxGeometry x="11.894894894894893" y="11.947879746835435" width="209.21021021021016" height="72.8586392405064" as="geometry" />
        </mxCell>
        <mxCell id="Ync1CkBfdIFv9e4oZCEu-164" value="" style="shape=image;verticalLabelPosition=bottom;labelBackgroundColor=default;verticalAlign=top;aspect=fixed;imageAspect=0;image=https://encrypted-tbn0.gstatic.com/images?q=tbn:ANd9GcTdjHHPXVwOLtZ74ry-cCSmLht7Kmmy7hoLgA&amp;s;" vertex="1" parent="Ync1CkBfdIFv9e4oZCEu-163">
          <mxGeometry y="16.44874472573846" width="109.64572062632057" height="36.73784294080705" as="geometry" />
        </mxCell>
        <mxCell id="Ync1CkBfdIFv9e4oZCEu-165" value="" style="shape=image;verticalLabelPosition=bottom;labelBackgroundColor=default;verticalAlign=top;aspect=fixed;imageAspect=0;image=data:image/png,iVBORw0KGgoAAAANSUhEUgAAANEAAADxCAMAAABiSKLrAAAAsVBMVEX///8PFokAAIMAAIGoqtALE4jc3ekAAIYAAIIAAH6usNMKEojKy+IADIfv7/kIEIiSlcWztNQvNJWPksXX2eu7vdpjZ69eYq4WHo5zdrTExt/y8/kyOZr3+PsiKJBKTp5naahRVKHl5vNSVaibnsvS0+chJ5ApLpNvcrVDSaMwNJMVHZA8QZ1BRJmGicB5fLV/gbWnqMt/gr0AAHVvcrJlaKyXmMNOUZ08QJeeoMdITaS/qWB0AAAOP0lEQVR4nO1dC3eiOhCWYAyKIbWKoBRdaNVua3Vvb+2t/v8fdn1LMohCgo89fGfPvecsbpIvj8lkMpMplS4Fa/7c7voXqy5/tPo6NdAf79rtUIZwRLQlUOfaDVGGDtLWMLrXbokidDHeMKJ969ptUQK/Q7QtSOPajVGCCsM7RkbwV8i7B6TtYYTXbo0KPLIDI9S8dmsUYIDwgRHtX7s5ClAmB0Iae2xduz3y+BNlhOn9SzvPoRFGGppfu0HSqEQFw3JHmt69/G5RHGVEn+9eXa0bUUIaG969IjRHHCON3D2jicBIv3ut4ZUIjOrXbpEsHH4daUbt2i2SxW/KM0Lla7dIFk9MYPRy7RbJ4vEGGckJJ8WM5CWl/0kQWTSyF6Rw1rXmvWVjZCXLg4GXCrMxmmdVx4BkyKqqhhNqLM/3jNgZC9igxcyN8kLcjAcbR2CUVXrXKNkoiHQspRk29F1LqJttuqjZYb0p2c9eJKVHNQ86DCOfWWaeEi0o7JODBq9LHYOj7cGonaF3ajwjnEVTrY+jA60P0pdwwAPXHuSkb46C08Sgx7VCTtft8u1BQer2DAh/4lukXtfdESdcMJNaR8IJVEPttGtJPJV30hYQury0zNAnXHELcTuZpWyRN+OGmfyTsgWVN7EFkkbMqSB8NfKZsgTeusXS7o990ABJpaEsFojTHgdqnAXyLeWyngnCP30JIix+Ya+KHKXaD6wui1qJnXTVl6lYPUpZAsRMHCSNvp9eSr4VVmqfzmLkam60TbgXvDbtMLTOW40DYoq1y98T1gEjDZ1YSq3G968x1hEyKDMx38mYEmQgt9+Zd0+LLE+US8vufJK2YHptcSYnGa+9sNb+GVJCmDhbOJjLX2hvwUslmVUT9qb0YWKJBmCksffYlnj2PCAGWo5LEpt9vzCK0PjBPr5f1sEa1tiPCuPYGAy9hibgV37r60MjYCGfAEV0PKvHTyQfzjnNeFBAqGTDQTJd4UxQqY1RajprYEaM3nec8jmHc465Su4BfCdmOnPOFuHnG4H9eT4YGrbBzmt9wCKJItPYYAhkaOTg5nWd5dqR4LOCifSRYMxoGuBX6bXKY/iMKXy30dkBgbMyCxj5KUcabJmwG6vqrjw/AKWNguYPRnqm1RMLapDGXojGSW6FF+1dF0wrMl1upb+ozPKBMEmw3epCuIoMpT445ZhBGkwo3DBkQcl4vULhLoip1GkcAOjAGuuhU3xMRpdAhKAlCCGUsmRdYsOpaUEzn3rzctgHVSS3jRFEhuOP/n9B+3U6eWhOPjuzoP8zcpd/TxNFIyY9O9TFv1V/Jd0iZ0vopXpjkNHsu1EPRW3JanUb8z/BsIpQwmgxMhYrI2P1t502g+I0tjX0sT+xraTzgue1Xpy3JJ1JJERHeVx21k6um+UB1xj9aZxn2fC73w5JGqkoQVetVNjhO5kSJsR07DR96VUelieP07OZkbzcQctJ0prSX7UMc707HZ0ae9bL7zb65VjlmBjjQUZhFE4IStqoKcpnym0AjF0bEPxLqtZy//joo6c8Hdhe4jYhTHQn6/jsYM3JEf1dH1XUtD0O/gSaZlaT4lVFJ1rNYdz4s3GeI9SJmRoYjVS5XAzaeswwISWWhVj405hzEH3vKPQum49ihol85DVKX7A2jJ7UytVWO2Y1kXEuo+SLt4+rAdKaqpUtv9yLOekFeVD6hIRIP4+dvDWDqxX11VOag60VoyAf/0z/BepFqK26rhoVxTam+XnX20N43PtSW8UAmBmokadT2QCal1RaTUqlSk/sM/SYrydjGIiUsCrj4wrQpory1EzWsJ7FYzkbqtuWwM6axa0hLfymKPKoq0o62OLZGbkXcXB+EDsymxcPREuUCnSc95TbQrSqYqIm5qKvIx74QoRK/qtQNZHzcdrCdto8ZpcLIPI+hcqd5t2HkRQoUKBAgQIFChQoUKBAgQJ/L6xKFOIhnv8qfPQrJ8D/3OO+nba8bX53vhltV26zqu9RfRevuyeRr/q/Qundf/UkVAUf2S6Jfjx90bkuvXr2xdELWv++zFn54DMxzagNsCowqgPvKt6oK/jO16PBBuj08y3VjdHxzHvl7Q0xqt08Iw2d4xDkvW5vt+6BkUaHJwOW/MXO+HoXjDRmnKAU9vfNvA9GGtMSb47CSGTpnTDSzOr3ceNwPeoCcS+MNExh4MmeUPT68W4YaVh34vfkGu/GppLR2g06CvKokNFyY4qlVBb8WRUywuO+CCFooyvHSCNPUH14EB0fFDJiZc8SIPSpLCONfIia5QQ4pyhkdPpVOslZt/pH/GW5N4UepnfGSKOjyF7rw4DJ+2Ok0UM1IYzjuEdGS4m6jQYJP2KjuERGbzfPSDPJ9+pj6yPepRmMUZ0XWN5EISNpWbcBRlO/VKdH4uwERpq7CHg8Rl3QkqX3SZVfzRhpq6gdGzheHWMENn7Opy55h120HQ5AEVM0RitKxtFAC8AoESe0IAMZmz+b/yxyG6MkqGQkgD4XjApG12ckJRlY/PazqijpfHS7jKhzJEhII4sXrtx7mXVkWopRtFcfAquu3SWjTozbqrZ5M6t7r4xW70+AENnV81K5MRLUDaSeUanMSwFsfK3O/cmMKNrv/OvNn+uUZC3oY8a7X4L3d2Qkw/bBjnpUn8Nso2glMnKfed2szYVCn7Az+B4HYDJUwChqbTSrW7/iJEbwfPRwI+ej/aMq3s+WEnN3N1CJjG72DHt4JmYbT0EPMcz3zqhUai+lOB0d4lDun5E/RSRq5roeIxWSYduqn6gp8lYYPQzqAsSg5+OMSpy19kYYYbcnYCi+HJjAiC83J0YpLScaNgXQ4Y0xMvu/RHQSblsgzN6NMVoqUARt/uz+P7pzRgCJd3wFo4JRwahgVDAqGHGMmtVDtKkOArcnka9I9IGsV1ES9KHoA2kk/dzAAqN/Ix+rCU8ZcOVWy6VBOQLwxhT3VUyhEc7LiRB01zD51+Wa4P/AlZ7wVgdf7qWCjwsUKFCgQIECBQoUKFCgQIECBdawGraASz0lZokV22pexbYcIrgYjy6TzRpUTN4VVRwOKeZAySVGyXMQXy1GcolhI7BFbz36mOej6BtY8DnNV3Wlv4g+a9Q47ZAghwoBhAKFr/H5fZGSiZVkvzoKITnnqhNdpU8Tez/gwVbjSPSjEtTA0+Wsp3jtth5B8EU+T1Sv0QTZR8zTLiBp0XqHlEb5yIfQge9UkxzSttswpxMdqnnflEcZviyP1T6zvEMXvrrNiKN6Zwq/4LPyWDYj7DHU4ChphMyVvujbdWM81Vf5vfJBIyYREyZjdU/L+68gS9BqhBQ9RxyHmhsTbkZRR9HUazzFDBB2j8b9q0AXSrwl0NtEwdQbzGLT0bCcnxJv9eNi6BhCn5KSfDDTj+SiYSiv3EcbzOLDHDFy/0jMvfrX+9EII425OT7J7y2OxlmYpNquZ5p8of14bHy2RVdzS5vgxSQhjYCQoJn6TDZ4GJ9MW5pbJgh/nEhIW/nK09GkdfZIeeEqq+wZSfFy2mP92HB7sW6GSP/7nLUc2t/Ou3Fmmk9M81hLx2LpACjRfpymHYrPaOzge6Hd6Y8wMY4m+KMiU0aUHcn3KKeI58SrEGY0DCb/1Bp2d1BZZRv0PStsDbp27bv9RHRCExLxYfQBEt8wplrTr7+DDj2ZdI6uPIs1d/T28/Ffv//xM37suSZBpxL+UrPjlcAMp7/VnscsmByGdM7KrYyxyTYxcYyBfOxx/YCeVwLzFcxxNFPKCGbcor+t+iIxj14WMPL+spaVMbnKkUrpEJNoe53cveZI54zmGz3aqYj+DFTJVFkgl7Dg0YhtQje8smuoGidG0OygltZgJ6IfZYwCWLqxP/nPA6lc5TuY6G3Krf0nWKquyqbWhZKWvR82G8teGOenw40Fpgb9Fo4NDZhSnMU8VZUF3gImJCa8tanVGUtkLWdIC17AQdVvx8w7EGebCTXYWQYw2YY1x0Ag29hpYEZ0d9KNUy/qUEXCRMUgeY8x1pm4w1DY7PdIuulHkfbTsY/ZEWKSNBIVGdJiJPfRwR/88zXUUZKGs4e5PPmi3w+xo7OFBYUDduUluAVXEU1Iy+h7g2bwpq1SeB+dgkv1iJDhW3t+6jXfBpx3RH4l2XAV6aeM0F63/P21cJGOQG5yauhkFEzn5bMUT5ipERPpG4RnqNC1z/l3vhVWuuXma/A72s+0bw/CEAbSH0HMvJNOBBgC/Yr20/XSgHL/OF31rR7IbZiyBAAgF1jaPM4v0RJY2guNclU8+0leifi/BEZMS3uY5M++JO1FEMjiKpk8sSJsRhilvcmxAv5Jn7Q3NP5MEE2kI2UHH/BDlOEmp8KvBPKauj2CnsyepKQdry5ikt6s3uLbQxep22M5iG+ElJWdm8WZ7tqE/cx8T98enx8lXUq360TKYpkuD+fCykYZetibRa00utRtRWSMaDYh8ykIy2zt+YpowHJj1NjFH2K0yGYDFF9y1bNdnszd3VafZd5GUBmu+8YkWtZM66Kia2RMQR8GaDP1kJz0LtUIoRS9TzPfDo0FRqk3pD26zrotIMg1Leqz8fMEpAs5H0/ii9XZnS28QXsx7lw9nlI8AUswuhH8fYwUzrobwW9RMuSZuv0icATV+VSKj9uHeG2i5+/jmjOaos6Qm6PhpSCYryXPAreAAT9G7DFH/9bLoGVypg8a3D2jcMyfyv9cu0HSEKxJJKPqfUtoRhnh1MaxG0SDs0D+3L2oW54BohcMyLl2c1QgeoqVtsPfBOaRPfb+99cVwoNVlSiMIbom9tIOm/l60V4MrZ3LCmnn54x+WWztqkzJ3f1NwP+1MrUxyZufm4I/Qcigf4G6EEF3Xr5EzOn/TX85SxCbKeQAAAAASUVORK5CYII=;" vertex="1" parent="Ync1CkBfdIFv9e4oZCEu-163">
          <mxGeometry x="146.93693693693695" width="58.08612580799125" height="66.98178754690048" as="geometry" />
        </mxCell>
        <mxCell id="Ync1CkBfdIFv9e4oZCEu-166" value="&lt;b&gt;&lt;font style=&quot;font-size: 24px;&quot;&gt;+&lt;/font&gt;&lt;/b&gt;" style="text;html=1;align=center;verticalAlign=middle;whiteSpace=wrap;rounded=0;" vertex="1" parent="Ync1CkBfdIFv9e4oZCEu-163">
          <mxGeometry x="111.95195195195195" y="25.677647679324924" width="41.981981981981974" height="21.297468354430393" as="geometry" />
        </mxCell>
        <mxCell id="Ync1CkBfdIFv9e4oZCEu-167" value="&lt;font style=&quot;font-size: 14px;&quot;&gt;Enterprise&lt;/font&gt;" style="text;strokeColor=none;fillColor=none;html=1;fontSize=24;fontStyle=1;verticalAlign=middle;align=center;" vertex="1" parent="Ync1CkBfdIFv9e4oZCEu-161">
          <mxGeometry x="2.0990990990990985" width="69.96996996996995" height="28.39662447257385" as="geometry" />
        </mxCell>
        <mxCell id="Ync1CkBfdIFv9e4oZCEu-168" value="" style="group" vertex="1" connectable="0" parent="Ync1CkBfdIFv9e4oZCEu-159">
          <mxGeometry x="48.97897897897897" width="131.1936936936937" height="85.18987341772156" as="geometry" />
        </mxCell>
        <mxCell id="Ync1CkBfdIFv9e4oZCEu-169" value="" style="rounded=1;whiteSpace=wrap;html=1;fillColor=#d33834;" vertex="1" parent="Ync1CkBfdIFv9e4oZCEu-168">
          <mxGeometry x="3.8483483483483485" y="7.099156118143463" width="127.34534534534535" height="78.09071729957807" as="geometry" />
        </mxCell>
        <mxCell id="Ync1CkBfdIFv9e4oZCEu-170" value="" style="shape=image;verticalLabelPosition=bottom;labelBackgroundColor=default;verticalAlign=top;aspect=fixed;imageAspect=0;image=data:image/png,iVBORw0KGgoAAAANSUhEUgAAARsAAACyCAMAAABFl5uBAAABRFBMVEX///8AAADw1rfTODMzUGHq6ur19fX5+flra2vIyMg0UmTbOTSioqLl5eXWOTOenp50dHQxMTH53r7Pz88iIiKVlZVLdpBXV1eAgIDe3t7v7++BsMRvb2/6PzzLy8utra355s/UvaI8XnK+vr59fX0AHB6IiIjY2NgjHyD/7takkn62trbENTE1NTWqqqrjOzhHR0cAFRcODg7Yx7OHfHEAAAxdW1vp18H03sMZFBaynojZwaZKQjy+qZEAFRmPf24SHB2SLStZT0dvKCeFKylEIiKkMC1PJCMsNDy1My9NS0wuHx8hGBatoJHHuKanmotyaF5+cGIeHSJkWU4MDxovNjJmJyZRExdCOjZYJSQWDgUzRVJKIyQeKS8dLztDaYEJMDiFJSQcPkpnFxFwmapHYGtpiJdadYFDU1s9QkgVAAAMHSjFO8PcAAAOrElEQVR4nO2c/VvayBbHOSCvISABxCCIylvkRV4qaHxFVIpKW1/u7bal1rvdtrvr/f9/vzNJJpkEkNLllrbM59nu84QMYeabOWfOOZloszEYDAaDwWAwGAwGg8FgMBgMBoPBYDAYDAaDwWAwGAwGg8FgMBgMBoPBYDAYvwL5rVyiGWsmckVx1l35sVhdBIp6jp91h34YgjLIMhy8eLaztvPsxXYIyZNwz7pTPwQpgGYVyi8311Q2N59tN6DOLMvmlSAqpm5fKcrs7u7aEcLu7jaAd9ZdmzGuJuT49GVoB0mjyEIQDhtzLo4IoXB++fbaqgwWZx0gP+v+zRAnXPJpz+UNksY+gLAHEJ91D2dHuepMNz3todLYdze34XLWPZwZq+CNSmV5R5NmbU2gpVl78SIC6Vn3cUa4YjKAJweqr9lde3VwTWmzhqIcWa7OupOzwQV12c+vFuGlIs1OBKTQMTVz9uz7NwDzGSA3oSymF5ue25fqNHmzL9A2pbnjrVl3cxbEQRKjTY8noWgjvJCGuGO7cOeZdT9nQRGiRSSNJwH7igjrw7SxH8Ks+zkLopD2KMiKJe0PUwZ9CPOYcy5DSpGmeUd5md2dgt1QandbEObRGRehHsTSJC6ptWl3bbONj4TCobqq7wlzmDdsQase9SQSnkR1j9Zm7VUBHx5iiXbXdiUhNHfOOAVXJ7VotVxF84bSxi7sCnU8ZQRA/1/fK8h7bUjMurPfFy+0KhctFPdCI9akbGrv7rgQuhawUTXsAor82va2DLlZd/d74oSsI9lqXK9trrUbngNDm3UJIKL4YSF0JwjrKBpsd87nKqkK1S6SF0fXmy+2n63B5b/oWE/5T1mpQJlPwsFFKTtHpYocnCWTJ7Dz8g5gH/8bGhEfAnZEwr8vuE5tFhmnO87nw95iKjiy+sj7o6kpR18iXCWTlbPG5m7h+LC9XhgeECOXA4eCXTgqBbjXkJpuF8ayRT0Qao5ok1HOTtfeL2ulZCVwApu7x+vC3UB+qazlijjXeEaBA9H63tFxkdJmRBCxrJ0OT/FnvfA6WXEELuCZUBhqTTiw0awKeecG53AgIaNPXzTotxD8p910B5/WxkVOT9Peq7VAEo3XcbQtDE+i7HalaCHsH7QFYe833DYgjZk4MMA/72juSW28U/wlQl6ZNg4HciI72spkZf1GQOv3HVqoBOH694BDmTj+J6+ayoVoYWLR4j/vqfikNvn/gzaL9VJSGW7p6I0dOZsb67MXBNxd38IxOlsQWhe4scORlcYORVdnSrPc9aQ2+lRdnM6vKZe8UqYNmjgnR/JxQTqwPGI4xHNm7xDXAPdgb11xxajx6fick9xnmMKcwYzRJqxta5jeKpGGk2RAG+9J9qgRoR+/oORSOIb2TaFQ2FtvA9wIN885pS1y3WMzBzfRZkqPQ8doYxOreNZMcQHN1B1Jh0bA0ZEONk3arBeEwzbuUOMQGigjb5xoQgZakXGX/t7aoF90TueXNKSWZlLq1HkO6rxZJ3FNGxsTSsAL6CPkbxp6y9djE4fvr810iaNVKmBoEziDl8rDqf0bsl41jpE6GOXglCMtT8ZGoD+7NqvI3TgoSkc3m1gboX2o55ggH7TbB20cGB8ZKl6MC/9+em224KJCa8OdaUZlb+hx4HH7zcHd8T6Oi884Q8XauBrXSG2KixH8sdT0G/7B5RTz3nTKH80pq1o4g5uEcrQDMWvjNUi79e9vRXNR0wXRB8qi4YxiT133WPuSj8YkdKKc2OJRYmJaX3Lg4GhtHIHGK3V3yXqDaKOblNx6azTmxibjI7RRw1st+GlqgwcDFJ/wZf2ImpxmbahvgNNNHahrRJP6BB0auxdNux1WI1SzchmW6ZOL9UqAloYrteQ1LXtq7NMxsmB/I0tIHNKcuxoX/Q3VZlX5JGN0V/VaMVqbND1uIxEza5OOknFVt2zuqvGFkHI6KFPaxCVaAqMzanq6mHe7xRy5LwaeGm1SgcBZtlff3lTTbrVgQ+ZOoSH7liKtcweJhs7HBefDtEkpH6hVBm1sq/QZRA7XI6j7qZvVgL9RjqIu9UDP1MnYRV0dJ/pXN66oZzuqHpodxUNgcWVNSpsA15Fa0kIEXmni7EcODjWDKkQaUvdh6SFye1UKkOV+cm20hFDdVenXTmvRWtSQA88lPT/S57lVGx5MoR5JNkPkA9G4YBTFG27dzMzn9edtyJBjI7ThSs9r0sLS0kOvESqgYMZ+fdCWGxEUFB8fIMd5m82+20DiSFpGxb2fXBttdFrUSEavuRQnaV41nwbLt4k2cbDUaqza2HSvpe1wrZsPM6Yjpb8mF+qpccScTrPv+kuYjZ5UbJYbjaPT82zrVn4DjXbh5uh9qfL2fmNpqdvLfrNNJdTjRWNw1OBJcz3eJlZApoZZm7jlLuvtDW2IEyMKkpmp5XfacmD43yL1XaxdvaSa04XUun/AyjxsLPTrOdSf2EUyWelIRzco9jtudJKVykV2wYfEaSl5A3c1LmkY0IaIQdYecp43Ndf9YcJ02qINDwMJ3UhtyDHx8ZrDIdNoWbdLc30jCthCAqW32qRByiB8HyCRAq7CVSrJzlED4KiCM4tSDZ172Kh1lJpGbdzevwFtiIMhebn5/IA2pMg5TBuemk9frY2WqZOlz6gwedLqtdwu+npFQJMgUMq2pA2sjG9BxbfwAbKqJ0omX5cq56c4RAxgbRb6NTzVAqXauELJgDakr5liKrXl9xOpNK0m0UbxRdZ7M6k2ZF4qlIMDeWoeh7qBk1YX+5kFCp9P08Zxlr2ovO7gMIhr4RPd90pVtAPjSsAD2sAIUpNqow3SsoVsUm3IIaFpeSnBDWikgYts3yIN0uA/WiRT6Zz/Ab87OI4LZNG88t0r7gZlpavfqo0naiY8mTaLemnYfKsn1YYOOFUsGWK1hv1Nq4diF4s2HzvKEhZwvI/l0jG4+u2P1x+wzdWUAAeFN8OqSO5F/ELRcG304+F1wK/WxojiyqYLTKyNscgTMqYLRgF5Vu60tWDVZmHhrVJiL70rO0V3PN379OmzjN3NlbrqD02nTAHMyHkz3Bi/WhuI6TfcdKMn10b/CR2TLeThVDGq+6UlizS+bCnABX7PfoGcOxe0ySsrK5+7Pt+Hs8Bod+Oh++y2/iA5Xh7yzQm0qRoqAe0ivkEbG29Rx+zf5Rb2shIyKp8hi2pUZ53Ten9l5QuILpftFmkTwoopYTH3dtjeNl2NMj0WfQCkr8MT+K/WJkElT3SMNaE2eW3hDufoZNzUJcWoAmfIqHRn7LtXZWq16n8hRVa6qLvu7srKn31kUhKnruDDBpg3dZm3/p7+ZHJovXsSbYwSBBUATqhNzljnnEYuZyr0xuGcwxFO13A4vp4a6PgWQlialU8okxWRSrc+FBUqVVHudGhFVNdGKXuR5UR/tq9nTOadBplv0MYo2BiPgibUJmqaJJfDtLElcJzLPe9R2kjqHPLdfla0WenmbPznlb/QtFlQTWrEozt98MpwyDNaIw3XfSj9pSZIk2tj1Hjq36pN0OT4XJa2KjxcKeHfhu6MfRFNm8i7vz9hbb48ula/fEKW5sMmFQigaTN8HdZ+oEgfUMana0dliU1S3ppMG8Oq9HV3Qm38ptum9dZai87UTzjkQHy6M/Z1ie/p9h4VdR63tj6FFE90xnGlk9OaPFQaLdNVTYZ4F3qW6gWssuaf8xGjuGTVTash6FbjNDUw1iqSZpNj/ddI+ELc26p2nDP6YhQ51FPW93XdgFdrqa87Y0MbH1an/GXlzzeez8iifCiX6pzXoC6PesaNc1s1zSVLifnRsO6OIZIJ+pUNBcSbEhPUbybJk6txSwM1JtDTMe0L+valpqaFnhOQmaUXjcNGB8l6rt61wUcnReSOubf3g9r4MP3Iu8e/ZQmvXf2IdIVG5cdjHL6PQrn5KaeY1nxbyJrBkXunoxpU0VM3Pgqha6c9VJtqypaii+MRxe6opdeTStALcSxsExN00ItMhU9QOzukjO6xIkUkPR81CUXjgdPKWZ04Y6mv+OJ+v9/tdu8REibS6/VkSYacOu2aI6zKRv89gvqwrW9BqoF+o2glFBdljskSpucGoNoNnStaTvvN9XhsVpbMUtHG5qcq7gO5pkao1unUHx60WdOTurePSvNyNdaMVdEtkZAyUtUjV13oov44vvKofRTxoOoDq7lRyWg46kHXDMVyhiuMO2ni+PGS+QNzA9U90w1Mp50um9v8gW3wAz6I+ycGPWg+1auLqVGPsOOQPZU3VG169/e98mI0nafMYfVxY2kDLT/BqpuXlMngnp8d2CK0euoijmtcC5anfy7+zcPS0mMOLRVxp6u4lUYal8duTvplEKG3QAIc30dL1cglXm48bMjIoyEXL+Z5XDpchOlu6PiR4aGvB38fLfbiEpt9FAmiLClWtLm8q8hpuf3z9LIQpU3fEh66RA/S5h4590zQJoa96bDNmZqjeWPrdY0KjrmghrRZ/IjWLxS9L+dEnsd+XozO04ubZUMbn2XcLjGjaJPicxk+v5r25vN8aJ5eoyrfG4l4w1y4com5D0gbeVnZuxBBC7zoGUg9fmUu5V7Xp6abvv+aF3G3GP2AkgcJMuk8H6kuJi5hzN7rXwwUVMtSX1HH98GcWbjzW//t3kpqvcPt3Qr6va6h1/h1SVeROl2cYX60OJN8EUKXYzf4/dqsXoLcu+/2+5agN59uOovz+Ga4iTDOiB/fgdlm8t4mHx77IPPXx+0NRjOW/Yviakzkpblyv6Ox+BYxXBXF5qiXAeeMmLnmyedDvJibp0j4CbbMz9ecosTzc5UlPAFvfjYXF+WoZ5pvtP3USKbtFm6xDNCc9zWcYDaguNic0z/QNgwRonoy6eJF0RN6qvWcgZ/mXGaCKfxqiqc63deuf3bEHPX+BNSX5/HPbD2FMx/2er3hvJMJw2AwGAwGg8FgMBgMBoPBYDAYDAaDwWAwGAwGg8FgMBgMBoPBYDAYDAaDwWAwfiL+B9H5p1pT6eoiAAAAAElFTkSuQmCC;" vertex="1" parent="Ync1CkBfdIFv9e4oZCEu-168">
          <mxGeometry x="27.98798798798799" y="27.97067510548518" width="73.74980018317991" height="46.384055743527405" as="geometry" />
        </mxCell>
        <mxCell id="Ync1CkBfdIFv9e4oZCEu-171" value="&lt;font style=&quot;font-size: 14px;&quot;&gt;Classic&lt;/font&gt;" style="text;strokeColor=none;fillColor=none;html=1;fontSize=24;fontStyle=1;verticalAlign=middle;align=center;" vertex="1" parent="Ync1CkBfdIFv9e4oZCEu-168">
          <mxGeometry width="69.96996996996997" height="28.39662447257385" as="geometry" />
        </mxCell>
        <mxCell id="Ync1CkBfdIFv9e4oZCEu-172" value="" style="shape=image;verticalLabelPosition=bottom;labelBackgroundColor=default;verticalAlign=top;aspect=fixed;imageAspect=0;image=https://encrypted-tbn0.gstatic.com/images?q=tbn:ANd9GcSbsuQQUD-CKSk5-Pw6zmAPPO7_4CtaarQ7_g&amp;s;" vertex="1" parent="1">
          <mxGeometry x="-1500" y="602.6400000000001" width="106" height="75.71" as="geometry" />
        </mxCell>
        <mxCell id="Ync1CkBfdIFv9e4oZCEu-173" value="效果图" style="text;html=1;align=center;verticalAlign=middle;resizable=0;points=[];autosize=1;strokeColor=none;fillColor=none;" vertex="1" parent="1">
          <mxGeometry x="-1477" y="730.5" width="60" height="30" as="geometry" />
        </mxCell>
        <mxCell id="Ync1CkBfdIFv9e4oZCEu-174" value="效果图" style="text;html=1;align=center;verticalAlign=middle;resizable=0;points=[];autosize=1;strokeColor=none;fillColor=none;" vertex="1" parent="1">
          <mxGeometry x="-297" y="778" width="60" height="30" as="geometry" />
        </mxCell>
        <mxCell id="Ync1CkBfdIFv9e4oZCEu-175" value="" style="group" vertex="1" connectable="0" parent="1">
          <mxGeometry x="-1140" y="828" width="277" height="69.77999999999997" as="geometry" />
        </mxCell>
        <mxCell id="Ync1CkBfdIFv9e4oZCEu-176" value="" style="shape=image;verticalLabelPosition=bottom;labelBackgroundColor=default;verticalAlign=top;aspect=fixed;imageAspect=0;image=data:image/png,iVBORw0KGgoAAAANSUhEUgAAAOEAAADhCAMAAAAJbSJIAAAAeFBMVEX///8AeswAcsm51+8AeMvt9fsAdMoAdsu/2vAAc8rI4PPE3fHO4vMAcMn1+v3c6/fk8PnU5vVfotoAfc2IuONJlta00u3f7fhpptyhxuh1rd6CtOGqzOsyjNMSgs8ihtCSvuU8kdRWndiKvuWbw+c7kNRyq94Aa8fAC/DtAAAIAUlEQVR4nO2d6XriOgyGE49qT4CwlkJpB2in7dz/HZ4E6GkISSwr8hIef/+noxdJkVc5SaKioqKioqKioqKioqLuQOPHuW8T7GokM/n+27cVFjVSkILK9nfryLGEtBTIfH2XjvwGPEHm++PGt0HcGlUAS8YM3n/5tolVZQ5eC+CuMnIs0waB/Lf+NfVtG4vGsu7BSkY+3kFGjlQL39mRav3k28Keavfgd0aKdNCO1AGeHZmvn4aakSME4AlS7F9mvo2lqDMH646UA8xITIheOVIOzJGGgCdHiiFl5O1IBufI/cvCt+k40QBPjpRvQ8jIMf4j0+RIFXxGmudgjVGJddCMBmWiVXnIE6y+HjxJBEzIAhgyIXaoNlhCcpkYCiFPiAZMyAYYKiFTDoZLOGbKwWAJm1fV7oiQ6ysaLCHHUC1oQs4cDJKQr0wESshYJsIk5P3IBEjIWiZCJGTPwdAI+XOQSLhZ7q1sSnKXCSrhbJsrkBY8byMHCYSzrSpHHCAeuQHthKgp4abgu9gh1ryr5sxDNRrhZplXzFArzkVzK19RQ8LZVlz/zCBfhwCIJbzk3zWi2DEBWstBNOFmKRttyN4eWACt5SCS8Dr/rqTSUX/AXpsvDITTbdZhAYjn3oA2QxRD+NA90gCx7QdoN0RRhKnmJ5Z/+ozhbHuQgzAFNQ4YkIMwhexIBLRaJhgJi2R8pwHamU1YICzHcIS9ZAchmrIRpgDG5x7cALIRFsn4YgboIgdLsRGaTqioM3qAldk/YCRM5WqCByTO6MXbbGX203ASFhMq7BiOGKLldGZqYFApVsLCgi8cIC1EQbwaGpRyExYTqj+ICRXxK6r2G3OD2AmLL4F2DEcEFMspxSB2wqJsfHT/RVoOgvigGcRPWNiy7AQk5aCCEdEgC4RF2ehYFKeFaLZ+oBpkhbBIxrY/SwKE/IVuEIlQH2eQNS+Kk3IQ5JPGoC5RCNVf0P8njWM40lBNHmYag7oNIRCK0QKBqPY3i+KUodrNQpATwt/JBIEIqrYoTglRkPXa44gwmSDcUVsUp6yqqdvBvCvCZIFxiPj8GcNRvqJNyeyMEBWohQ++CzUBsHmX0h0hDhGy84SKkIMtRdUhIS5Qz99CQg7KQ/PAyCVhskCVt+wwHxmXifaZplNCXKCmsDJceOjcfnVLmExQXkT9DlV1baE7JsTloqnEe8eqnWtCZKCaCMTR0KBO9SZkR1Rpd9MS94TJJGOjS8ulLM12pAdCzlxEnO/wQcgXqAD6MzpeCLkQ5QFxzsoPIUugQmeR8E2YYGb9GkB5RPD5I+wdqGqFPO/gjRA16++w4xN7gMwfYbLIyF4Egd9A9khID1SjQwA+CamI8mDSHMgrYZGLhPXCfGl0oNovIaEu4nfGwyA0DlS1Nz2h6pswWRitWMC78Slj74QjIwNgPThC03VR83PUnglxK1NV/b8/PwzCGaEgarb9wyKkAKamRzd9Em6MF34vgszg+o1HwjkV0Oz6jT/Ch32fCSLqtJhfwnkvwHJ+gezt7Ivw4dD3Zgj2xL8nwmlvwFSzXeGZcPqH5W5PwwGVQAinn0yXl773xIMjfGO7nQX5ly5SfRCuOe+Zay+KuSecsgKWkdptknvCd9bNtbSM1M7L/s4J2QHTq/Oy/gm3go2rooBOKqAAQRnPqiBvLRtuCXcoQPE8Np84im1L2XBKiAI8rcSMzfc0Qjj19YIBFOevxkiYn9xTjbsZDgkxgD+bSoRrFldH9D0QPmIAK5tKlFPsoqFsOCM85vo/LvfVTSVCoFZO4Don/NB78GaZcETYQoX86IcQA3hzyj4hFI00rW++OSGcvOoDrnG5fig3SmCr35zImk8eUHKxdpzWyb0n7X/RfvKAdvEp33Ub1CUrd9eur2Jdi5SLafY2pxpkg1B2LiiNKYFapPWYaJCFW7K6NiCkXPyZF3snROwHEtspiPOOuG9CtUIszhMRz8upngmRGyy0XDyXDa+E+E0yateIfOu1awTmDPO3aEWjDJKJv84fqF2HH0TiqWLz5RC2DjymvaJoRcMcka2LEvIMc0WWuurWxUQImosuHhF5CLUXXVoQiYHqnJDeyJSai44J+zSjdRCo/QnNisQNYgCdITW7g7jjBe2yHqj6Dq076IgkzW1IFKLvDq1JMt/ddkm+SKUMzdmpAzg+wpIxb/QjsUjcINKvonARFtn4JW8fNkc2Z9PLai6iO5bP6/kIqneT5B9Ei0XDoOv8fCerXed7FYm6LNZFo5cDKvnI/XKAvQGc4esPD1+nWG1rdNVDlG0bG4Tn2qG7Mk+SraJBeIVl/sVTJOoK5RUWi7JTNEIitFM0giK0kothEdoYwAVGaCEXQyPk/6IGR3j/LzyyD+ACJGSe9YdIyFs0giRkXYELk5CzaARKeP8vjzMWjWAJ2YpGuIRcuRgwIVMHsZAJeRCDJuRokgb/giZEdrltx5NybfxKk2P1CVQQqxfOZWtLMu8lcsFT+ecT76q1LZFyETLYEd5J8yTjQAUpPp+H4b6LzBAL933hX9YKRPgut0X27Z9ZHrh1LGQuFu5b0t/T9CtMoCpxOFrZUHEjHSLIfLDuu6grUKGo7Y9DzL5rtXa5BQnrsMeeWDUHaum+4dR2jW673BbF4W0gQzOcal1uIUsHNDTDqRKooLLP13ty30XfiCBgN7ihGU5ll9vT0OwO3XfRQgpY3qn7LpoMeWgWFRUVFRUVFRUVFRUVFY7+A85AjyTJYV8DAAAAAElFTkSuQmCC;" vertex="1" parent="Ync1CkBfdIFv9e4oZCEu-175">
          <mxGeometry y="2.3899999999999864" width="65" height="65" as="geometry" />
        </mxCell>
        <mxCell id="Ync1CkBfdIFv9e4oZCEu-177" value="" style="shape=image;verticalLabelPosition=bottom;labelBackgroundColor=default;verticalAlign=top;aspect=fixed;imageAspect=0;image=data:image/jpeg,/9j/4AAQSkZJRgABAQAAAQABAAD/2wCEAAkGBwgHBhUIBxQWFRUVFyIYGBgYGRggIRsfHB0lHR4fIhkcHyggGB4lJx0fJz0jJikrMS4uGCAzODMtNyg5LisBCgoKDg0OGxAQGjElHiUuNzUvNTcxKzc2Ky4tLS03Mi03MiswLTUtMy01LS0rLS03LS8tKysrNSsrLTUtLy0rLf/AABEIAJEBWwMBIgACEQEDEQH/xAAcAAEAAwEBAQEBAAAAAAAAAAAABQYHBAMCAQj/xABDEAABAwMDAQYEAwMICgMAAAABAAIDBAURBhIhMQcTIkFRcTJhgZEUobEjQnIVUoSSsrPB8DY3U1RidIKiw+EWJDP/xAAaAQEAAwEBAQAAAAAAAAAAAAAAAwQFAQIG/8QAKhEBAAICAQIEBAcAAAAAAAAAAAECAxEEEiETMUFRBWGx0SIkMkKBoeH/2gAMAwEAAhEDEQA/ANxREQEREBERAREQEREBERAREQEREBERAREQEREBERAREQEREBERAREQEREBERAREQEREBERAREQEREBERAREQEREBERAREQEREBERAREQEREBERAREQEREBERAREQEREBERAREQEREBERAREQEREBERAREQEREBERAREQFE12obfSSmAEyPHVkY3Ee5+Fh/iIUNd7tLc5DT0jnNhBLSWfHMR1azHIYPUcnyIHJh3Udx2d3DG2Jg6NDmNP1yQVPjxRPe0srlc7JG68enVMevp/qfm1XM0+CFo/jkAP2a136rnOs5WHxwtPs93+LFX5I/wr9k4IPz/wA8+6+d8ch2t6lXI4+PXk+dv8W59cnTM9/bUfZbKPW9omf3dUXQn1ePD/XGQPrhWRj2yMD2EEHkEeay+q0/WyjhgHyLmg/YnK5bZcL1o6rDZGOMDj4oz0+ZYT8J/I+fqK98Ff2S3+Jzs2vzFJj56a4i8KGrgr6RtVSnLXjIP/ryI6Y8iF7qo2InYiLMO0ntMmsdebNYWtdK3HeSOGQwnkNDR8TsEHngZHB8g09fL3tY3c8gAeZWGxak7U7e9lXVRyyMe4AMfAzBLjwCGBr2Z6ckdVe+0y2m96KZDdJ4aN29jnd5J+zLtpzGXnGRkkg46sBwgvDXNe3c05B8wv1UHRcts0boAGoraeVoc8te2Ruwu5PdsJPiPB4HJJPCi+zrtNlvFRLHquWlg2hndc93uLi4OHjed2MN6eqDUkWT9rmtb9pq+R0tnkaxroN5BY13i3OHUj0AV21JdKyh0LLdKZwErafvA7APi25zjp9EFiRZz2Q6ru+phVG9PD+67vbhrW43b89Bz8IVytuo7Hdqj8Pa6mCZ4G7bHIxxwOM4aSccj7oJRFFxaksU1x/k6KqgdNuLe6ErC/c3qNmc5GDx8ljeurrcoO1j8PBPM1nfQDY2WQNwRHnwh23Byc8eZQbwihqPVenq6v8AwFHVQPlzgMbI0kkdQOfEfZTKAiIgIiICIiAiIgIiICIiAiIgIiICIiAiIgKB1rcnW3T73x5DnkRtx18XUg+RDQ4/RTkj2RsL5CAAMknoAPNZ5qLUlBfa+Okt5c4RbnuJaQDkbW4zyervJQ8jJ4WK1/ZByMkUxzPq9qCpiFAySIbQ8YA9Gt8LW+3Dj9vRR1fcYA7Y3n68BRj31dTbWRW8bnxlzXsBG7aSXBwb1IO49FHxW67SnmJzB5uk8AHuXY/Jb3Bpjtii8zHkx8mG97RWP06jSQudWTYo5Gn4ZnMHPkQ04yfIFx+6/dLVEjb6RPjwRPkHIPIbkHj0wuS70FZUUtPbbT4y15cXHIDn45+eAMe20Z6r8t9vvdq1AyoujAQ5rmkNc45b+8OST0/LJ8l5vaNzWPVaji06q3nziFokuFPHTg56+eTkrjo6tlXP+Bf8EvhwfU8A+4JBz7hQlTba9rs0eZ2eRZy4DyDmdQfbIPkV7WmCro6xtdcGGKOPxZf4ckcgAHlxJCtTjx+HM7hWxcfJW27Lb2bVxAfQPPBG9vu07X/fLD7ucr0sf09d4bHUR19Xu2h+120ZOJGny/iDfstUtdypLrSCqoXbmnjzBB9CDyCsXNH4t+7R4OTePp33j6OxfzppgMqO2Efyhz/92Ynd/OBkLfs4DHzAX9FrIe0js2uNTeHX3TA3OeQ98YcGuDx++xxIHOM4yCDkjOeIV199oGutXad1DLDSRMFMC1scj4ZCHExhxAk3Brjnd09PkvLX11qb32Q01yrtveSStLtowM+McDJx09VXblb+0rU8DLZdYpntY/cN7ImAHBaCX4buwCfM5z5lXHVekrw3stprFSM76aJ7S4RkY/eJwXYyBuwjiCtFjprx2KPmqXPBpnzVDNpHLmNdgOyDlvPlg/NQfZXpGh1ZXTtuD5WdwI3N7ssGS4uznc13HhHTHUrTNAabrI+zmSx3ljonS96wg4JAkyAeCR5+qzzT1p1/ou6vFspXOL8NfhrXseGnIIdkbepxkj4uQg6e3zH/AMqh3f7sP7x64ro/tKOn3i599+F7vx5FNju8f8I3Yx9VY+2XS9+v1+jqLRTvlaKcNJBYMO3uOPE4eoV91Pb6ur7P5bfTMLpXU2wMGMl20DHJwgoPYD/+Vf7RfpIq92Df6a/0R/8AbjV27F9O3extqxeYXRd53e3cWndt35+EnpkfdUik0lrfSepXGwQvLhuYyVoY5rmOPGS7wt6A4djBH36P2yf67f6bN/5F49ptOKztSkpHHAkkhYT6b2Mbn81M6Z0Tqi29osNdc4y9okMkk4LS0l8ZLj1Dj4nY+Ecj0XrrnRupbt2iSV1qhIYSxzJiWbQWRtwepPxNx8J5+SCvdp2kaTR1ygZa5JCJGFwLiNzXMI5DmgY6g/Ij7bzpavkummqa4TfFLAx7vdzQT+qxWu0zrzWt9Y2/Ruj2jYZHBjWMbnktDT43HrxnJxyB03ehpYqGiZR04wyNgY0fJowP0XB7oiI6IiICIiAiIgIiICIiAiIgIiICIiAiIgqut6oPMVqc/YJj4jzyAQMe3OT7BUOkMDr/ADfhT4WxAD7n8/P6qf7T6iGmvtJJU7tux5O3rwW9FTNNCOsuk8sRIDcEeyg+I6jhW7+sfWGRyomctt+Wvs766zvuF0DKYhrmw7/c79vUchfMGnr1NUDcWcerpD+WRn6qxWdofqB3/LD+8Km5h3FBLNHwWxucD6ENJBXeJbJGOvTPbSfHE9MGnbB+Cd39S4vkIxkgANHo1o4aPZSF7tEVwpu7fkEHLXNOC0joQR0KpPZnUxO1RNFT1EkwMOXBzXNALXt5GXHcTuPJweFZ+0WdkGn/ANpI6NrpAHOa3ccYJxtyM5wFcmJi+t908amql3bTN4jqN0bmOx5+Jh+oZ4SfnhR9bYqylijrK5wOZmMLQSeHHB5Ks+hZRNpp37V0zWzOax7mkHbta7bgkkYLiOvtwvLVsoNraB5TxH/vCn67zOpQWrGv4Vi5yhlMecYkjP2crtpmqp7feo20bxsqRgs56jPT2I+xWYX6ZppnyHq0jH3Vg0rcqOp1LQQ0u7cH4dnp8Ljx/n1XZruk79IVcdZresx7/ZuKIqp2p11Tb9AVVRR53bA3I6gPeGOIPlgOKotpzV3aRao611HaIamtcw4eaWIva0+hfkA/TIUjpnWdq1FUuo4BJFOwbnQTsLJAPXaeCOR0PmPVdekbXRWbTcFFbgAwRtORjxEgEuPqXHldF5q6e0W2a8StB7qJzyQBktYC7bnr6/dBIIs30/py7artDL9e7hVxyTt7yOOmk7uONruWjbjxnGOvtz1PXpe93R1LcbDeJO8noRgTAbS9j2F0bjjo8Y8vUdTyQvq+ZC5rCWDJxwPX5Z8lluh9PXjVWlobje7hWMBbiJsMpYcNJG578F0rnEE8noQp3RVxutLfqrS17kM7qdrZIpiAHPjf5Ox1LeBnz5QSEOobrTaLmvl7pe5lhY95h7wHIYCR4wDjOPQqZsVwN2skFxLdnfRNk25zt3tDsZwM4z1wFnNjrKqv7CKiorpHyPMNTlz3FxOHPA5PPA4XZWXq427QVrt1kIbPWMhhZIRkRgxgufg8Ej0+fywg0hcN2u1DZqcVFyfsa54YDgnLncAcA9VSrtpC72W1vutnuVY+oiaZCJpA+OTaNxb3RGG5xgYPGfqoXXrxqTRtFqTvJmGV8LDC1/7MFzjucG45eCSA70AQa6iitP2UWSndCJ6ifc7duqJN5HAGAcDDeM49SVKoCIiAiIgIiICIiAiIgIiICIiAiIgIiICIiCL1BYaDUFH+GuDc45a4cOYfUH/A8HzBWaTaOrdLyTTSjvonDwyMBy3A/eaOWfxDj1x0Wvoos+GM1JpKLLhrkjUsm0rVtFcaxzi9rohGMYLgd5I8LeXDnqAfn6q20s8UriGEOHQjr9CPL2K6L3omz3aTvw0wy5z3kR2kn1Lfhd7kZ+agKrTerKA7qSSGraOgkG149ic/2gveLdK9M+SDw717eaw2GyWu0PdJbYwwv+I5cfoNxOB8gu270VJcqI0le0PY7qOR06EEcg/MKlNvWqaDie3T5H+zeHj9ZF8yam1PUjZDbqo/xYZ+exn6qfzne3uLdta/pMS01JaqD8LQtDI289T59SXE5J+ZKqGqqhhtxbuwQ5r8nphrs8ZxvPGPDn54Uiyza7u8gc9kFIP5z3b3j25eR/Wapa19l9rZP+L1BJJWSefeHDP6gPiHycXBSRkrV48K1vkyi0WG66sL6e0RlwJAMr+GNwecvxj/AKWDPyWx6I0BbtLAVLz31RjBkIwG56hjf3R8+SfXHCtsEMVPCIYGhrWjAa0AAD0AHAX2o75Zt2WKYoqLludBT3S3SUFaN0cjSxw+RGOvkfmupFEkZ3b6XXWj6YWy3wxXCnZxCTKIpGt8mu3eEgdOP04EvaqPU9579urRBFTzRGIU0fjcNwwXOl6ZwSMDI6dMc21EGd2mPXWlKFtlpKWGtij8MM3ftiLWfuh7HDnHTw+QHXqu+xacrLPZq65Xp7X1dW1z5iz4WhrCGMbnkhoJ5Pr8sq6rzqIWVFO6CXo5pafYjBQZT2e1WsbTo2D+SqWKshkaXR/thE+Lc45a7eCHtzkjHPOFbNG6eudHcKm/aicw1NVgFkeSyJjBhrQT1PqfkOvU2Gy2ulstrZbaAERxjDQSSQM56nk9V2oM9sOl7tR9kcunqhgFQ+OZobuaRmRzi3xA48wuq46QrrhoqipYXCGro2xPjceWiSNgBa4jq0+oz0B56G8Igz64y9oF9oH2d9JBSiRuySp78PG08OLI2jcCRnqfqOq7dUaOlm0LFY7ERvpzG6PfwHmM55I6E8n39FdEQQumq++17Huv9I2lxgMAmbIXddxO0YaOmOSeVNIiAiIgIiICIiAiIgIiICIiAiIgIiICIiAiIgIiICIiAiIgIiICIiAiIgIiICIiAiIgIiICIiAiIgIiICIiAiIgIiICIiAiIgIiICIiAiIgIiICIiAiIgIiICIiAiIgIiICIiAiIgIiICIiAiIgIiICIiAiIgIiICIiAiIgIiICIiAiIgIiICIiAiIgIiICIiAiIgIiICIiAiIgIiICIiAiIgIiICIiAiIgIiICIiAiIgIiICIiAiIgIiICIiAiIgIiICIiAiIgIiICIiAiIgIiICIiAiIgIiICIiAiIgIiICIiAiIgIiICIiAiIg//2Q==;" vertex="1" parent="Ync1CkBfdIFv9e4oZCEu-175">
          <mxGeometry x="110" width="167" height="69.78" as="geometry" />
        </mxCell>
        <mxCell id="Ync1CkBfdIFv9e4oZCEu-178" value="&lt;b&gt;&lt;font style=&quot;font-size: 24px;&quot;&gt;+&lt;/font&gt;&lt;/b&gt;" style="text;html=1;align=center;verticalAlign=middle;whiteSpace=wrap;rounded=0;" vertex="1" parent="Ync1CkBfdIFv9e4oZCEu-175">
          <mxGeometry x="64.99873873873867" y="21.76895569620251" width="52.79279279279279" height="26.24208860759495" as="geometry" />
        </mxCell>
      </root>
    </mxGraphModel>
  </diagram>
</mxfile>
